<?xml version="1.0"?>
<svg xmlns="http://www.w3.org/2000/svg" viewBox="0 0 192 192" width="512" height="512"><g id="_05-manner" data-name="05-manner"><g id="Glyph"><circle cx="96" cy="48" r="32"/><path d="M48,184a8,8,0,0,0,8,8h80a8,8,0,0,0,8-8V152H48Z"/><path d="M188.652,118.336,152.906,71.167A15.9,15.9,0,0,0,139.566,64H132.65a39.984,39.984,0,0,1-73.3,0H52.434a15.9,15.9,0,0,0-13.34,7.167L3.348,118.337A16,16,0,0,0,16.1,144H175.9a16,16,0,0,0,12.752-25.664ZM160,128H112a4,4,0,0,1-3.328-1.781L96,107.211,83.328,126.219A4,4,0,0,1,80,128H32v-8H77.859L92.672,97.781a4,4,0,0,1,6.656,0L114.141,120H160Z"/></g></g></svg>
